<?xml version="1.0" encoding="UTF-8"?>
<svg id="Layer_1" data-name="Layer 1" xmlns="http://www.w3.org/2000/svg" viewBox="0 0 1298.64 2205.6">
  <defs>
    <style>
      .cls-1 {
        fill: #fff;
      }
    </style>
  </defs>
  <path class="cls-1" d="M1298.64,0v2205.6H0V0h1298.64ZM643.84,116.42c-266.38,2.65-486.03,220.17-493.19,485.81v1001.14c10.72,312.17,298.53,539.88,605.87,474.28,218.97-46.74,383.23-240.56,393.38-464.68v-1020.34c-10.53-262.29-233.76-475.55-495.75-476.54l-10.32.32Z"/>
  <path d="M643.84,116.42l10.32-.32c261.98.98,485.22,214.25,495.75,476.54v1020.34c-10.16,224.12-174.42,417.94-393.38,464.68-307.34,65.6-595.15-162.11-605.87-474.28v-1001.14c7.16-265.64,226.81-483.16,493.19-485.81ZM625.8,249.55v-17.28c3.95-.13,10-2.1,13.76-.8,2.53.87,10.35,14.95,13.12,16.64,1.37.84,5.23.9,6.72,0l-12.48-16.32,7.23-5.23c6.64-6.69,5.91-19.61-2.11-24.83-9.25-6.02-22.61-1.76-32.96-2.08l.96,49.92h5.76ZM714.11,236.12c17.33-2.12,20.28-26.38,3.65-31.97-2.7-.91-24.64-4.28-25.63-3.45l-6.79,49.78,5.28.08,2.86-17.34,13.89,2.43c2.1,1.3,7.74,16.64,10.08,18.71,1.76,1.55,4.1.89,6.25.94l-9.59-19.18ZM597.01,252.42l-30.17-45.75-7.99,1.83-10.78,53.52,6.59-1.08,2.98-12.86c7.69-.65,16.45-4.24,23.82-5.07,7.66-.86,6.2,13.75,15.56,9.41ZM762.11,213.07l-12.52,47.51c.2,2.63,2.82,3.02,4.91,1.99l13.15-47.15-5.54-2.36ZM832.16,245.71c-.52-2.71,3.17-5.26.98-7.19l-31.68-12.97-19.21,47.02c5.17.41,30.97,13.92,33.47,12.36l2.02-6.55-26.78-10.69,5.28-13.26,23.98,9.53c2.03.45,3.72-6.25,3.3-6.72l-24.96-9.62,4.92-12.34c2.58-1.62,24.04,9.82,28.66,10.44ZM525.02,250.51c-7.38-.18-6.35,8.67-10.7,13.77-13.42,15.74-42.42,6.24-35.43-16.23,3.31-10.66,16.71-15.62,26.99-13.43,5.42,1.15,7.97,7.74,13.37,1.97-20.36-24.89-60.43,1.72-43.57,30.15,14.43,24.33,51.29,11.06,49.35-16.23ZM870.55,296.57c16.97,4.29,29-16.41,16.26-28.25-2.07-1.92-20.76-13.35-22.37-13.09l-25.64,42.66,3.93,2.13c4.38-3.19,6.25-15.74,12.19-13.25,1.04.44,9.1,5.51,9.39,5.98,1.7,2.82.32,17.73,1.6,21.43.36,1.04,4.99,4.22,5.6,3.51l-.96-21.12ZM405.88,274.64l-2.73.36-25.84,20.27c3.37,4.65,27.64,39.77,30.13,39.73,1.55-.03,22.75-16.19,24.93-18.3,3.75-3.62,2.06-6.68-2.65-7.54l-23.7,17.16-7.52-11.04c0-2.29,18.77-13.11,20.5-15.82s-2.33-3.99-2.46-6.73l-22.55,16.14-8.07-10.73,22.55-17.89-2.59-5.62ZM333.06,353.21l47.4,5.53,5.37-5.05-36.11-34-4.16,3.29,27.81,27.34-47.5-5.76-5.23,5.15,36.07,34.12c2.07.37,4.49-3.61,2.32-5.24-8.2-7.4-16.6-14.84-24.52-22.53-.94-.91-1.82-1.26-1.45-2.86ZM950.9,320.67l-33.84,33.5v1.9s2.94,2.86,2.94,2.86l14.53-14.3,18.1,17.19c1.85-2.16,5.29-3.56,3.87-6.68-1.4-3.08-15.41-13.77-15.8-15.99l9.18-9.88c2.49-.44,16.09,16.92,19.55,18.7,1.76.91,6.75-3.08,4.85-5.85-1.53-2.23-18.48-19.2-20.65-20.66-.97-.65-1.4-1.15-2.73-.8ZM1015.03,401.86c0-14.6-11.84-26.44-26.44-26.44s-26.44,11.84-26.44,26.44,11.84,26.44,26.44,26.44,26.44-11.84,26.44-26.44ZM298.46,377.42l-3.48,4.78,41.44,30.17,3.48-4.78-41.44-30.17ZM286.98,475.09l-41.27-4.34-1.91,3.83,51.19,8.09,3.1-6.6c-2.92-3.65-27.82-26.4-27.4-28.33.3-1.38,1.94-1.26,3.06-1.24,10.97.27,24.65,4.63,35.9,5.49,2.05-.04,5.1-5.32,3.35-7.17l-37.5-35.97-1.51,5.73,28.36,29.78-42.08-4.65-1.79,4.19,27.61,27.77.91,3.4ZM1011.64,496.21l10.11-18.24c13.25,12.23,33.62,2.93,28.97-15.55-.64-2.55-9.48-22.66-10.74-22.75l-44.52,20.18c-1.18,11.23,13.16-2.34,17.51-1,2.2,3.91,6.4,9.89,4.98,14.37-2.14,6.74-14.92,16.95-6.31,23ZM717.73,531.03c-74.84,8.45-80.73,130.42-71.49,186.13,16.66,100.51,119.92,212.85,226.16,147.05,80.42-49.81,38.14-139.15,44.25-213.94,2.72-33.28,54.92-88.65,9.93-112.65-17.65-9.42-35.33-7.85-50.71,4.68-59.22,48.26-17.65,146.3-25.47,209.68-1.49,12.05-11.5,54.01-29.27,33.13-31.03-36.46.12-151.01-16.3-203.5-11.31-36.15-50.92-54.68-87.09-50.59ZM498.91,535.85c-131.03,7.41-86.27,177.5-94.84,261.25-8.15,79.63-86.71,257.35,24.46,297.09,72.39,25.88,179.86-57.67,256.42-67.08,85.12-10.47,89.41,76.36,164.7,64.88,33.16-5.06,55.71-20.76,66.05-52.97,42.29-131.77-127.04-170.51-219.86-125.8-57.96,27.92-118.81,101.36-191.34,90.61-50.56-7.49-38.33-45.35-14.97-75.2,37.92-48.46,70.64-79.27,92.38-139.89,28.79-80.32,46.57-260.21-83-252.88ZM717.73,1106.9c-74.89,8.45-80.73,130.42-71.49,186.13,16.69,100.69,119.8,212.46,226.16,147.05,80.32-49.4,38.17-139.53,44.25-213.94,2.74-33.52,54.4-87.56,10.56-112.33-18.18-10.27-35.98-8.05-51.86,4.8-58.28,47.18-17.26,146.86-24.95,209.24-1.49,12.11-11.58,53.92-29.27,33.13-30.72-36.09-.35-150.47-16.1-202.74-11.07-36.72-50.72-55.48-87.29-51.35ZM497.95,1111.72c-129.92,8.39-85.33,177.72-93.88,261.25-8.07,78.91-73.81,220.48-.96,282.2,43.32,36.71,101.63,14.71,147.79-3.88,46.79-18.84,108.69-53.25,159.88-49.44,59.11,4.4,70.03,80.11,144.45,64.86,36.53-7.49,54.95-26.54,63.44-62.29,26.52-111.68-99.01-147.1-185.55-127.96-78.25,17.3-145.61,115.22-228.62,103.25-50.61-7.3-38.19-45.42-14.97-75.21,33.12-42.48,64.02-71.85,85.85-123.39,34.11-80.55,59.46-278.23-77.43-269.39ZM298.41,1691.24l-7.44,2.28,5.62,15.85-41.15,14.01.85,4.24,41.61-12.55,5.37,15.03c1.2.84,5.63-.46,6.35-1.49,1.44-2.05-10.67-32.4-11.21-37.38ZM1049.09,1712.28l-47.99-16.33-.94,5.71c8.97,3.06,18.2,5.62,27.09,8.93,2.96,1.1,7.51,2.23,9.36,4.55l-46.41,14.32-2.54,6.79,47.98,16.33.89-5.68c-1.05-1.46-29.53-9.46-34.08-11.51-1.13-.51-1.74.45-1.35-2l45.42-14.34,2.57-6.78ZM318.61,1746.85l-44.98,22.68c.11,1.51.15,4.47,2.26,4.17,3.74-.52,16.74-9.56,18.79-8.24,2.43,7.37,11.3,17.7,13.04,24.53.35,1.38.52,1.31-.56,2.41-2.58,2.62-14.92,6.01-16.88,9.13-.92,1.45.74,3.75,1.96,4.68l44.54-23.38-3.09-4.2-18.87,9.46-13.45-27.82c.57-.77,15.06-6.05,17.3-8.17.58-.55,1.02-1,.91-1.87l-.98-3.38ZM1024.13,1778.5l-54.56-6.57c-.4,2.25-2.95,4.98-2.96,7.04-.02,3.82,29.27,36.64,33.05,42.69,7.1-6.64-2.05-9.26-4.14-15.65l12.2-23.08,13.86.4,2.56-4.83ZM352.17,1843.65c1.05-1.49-14.11-19.66-16.22-22.45,2.48-1.62,9.86-9.4,12.47-7.72l16.77,22.54,5.16-5.06-20.49-27.42-39.82,30.21,20.72,28.17,5.97-4.24-16.95-23.86,10.82-8.28,15.91,20.68,5.68-2.57ZM949.27,1823.61c1.42-1.54,29.53,25.48,31.69,24.5.79-.36,3.73-3.19,2.42-4.38l-37.47-31.63-5.89,7.18,12.13,30.7-2.17,1.28c-7.66-.2-24.47-7.19-30.94-6.54-2.83.28-3.88,4.64-6.21,6.24l38.7,32.09,3.05-3.77-29.31-25.45c-.32-2.32.62-1.22,1.99-1.04,6.42.84,26,7.53,30.19,6.91,1.21-.18,4.87-3.95,4.14-5.61l-12.33-30.47ZM378.19,1891.75c-11.2,16.01,15.74,39.07,29.27,26.88,14.23-12.82-10.13-27.27-9.98-36.98.17-10.85,19.95-1.26,21.6,9.11.41,2.6-1.86,6.55,1.97,7.58,4.97,1.35,4.27-9.11,3.5-12.19-4.79-19.17-37.7-22.37-32.51,1.8,1.63,7.6,16.51,18.27,12.11,25.44-5.47,8.9-27.22-8.7-21.33-18.22l-4.63-3.44ZM918.95,1902.35c0-14.61-11.84-26.45-26.45-26.45s-26.45,11.84-26.45,26.45,11.84,26.45,26.45,26.45,26.45-11.84,26.45-26.45ZM439.58,1954.14l21.12-36.07c7.31-.27,15.25,14.21,19.08,1.97l-33.16-20.49-1.26.28c-10.05,8.08,10.63,10.54,10.6,15.41l-20.97,34.79-.15,2.15,4.74,1.96ZM844.64,1908.07l-5.59,2.07,4.63,42.07-29.78-28.36c-.99-.69-5.43,1.39-5.59,1.64-1.51,2.39,6,36.21,4.65,42.08l-29.79-28.34c-2.09-1.06-4.27.42-5.7,1.95l36.44,37.46,6.82-3.05c-.76-11.95-4.85-25.28-5.23-37.04-.04-1.17-.85-1.62.85-2.65l3.39,1.4,24.94,26.01,6.58-3.1-6.61-52.14ZM499.82,1929.42c-.22-.28-4.8-2.89-5.52-1.67l6.41,37.3-6.4,16.9,5.16,1.05,6.88-16.35,30.18-22.61c-1.77-.93-4.81-2.58-6.66-1.92-3.53,1.24-21.15,15.84-22.61,15.83-4.59-4.93-4.4-24.75-7.44-28.53ZM549.97,1992.52l9.41-40.11c.85-3.41-3.95-4.53-5.37-1.44l-10.73,47.27,31.62,6.74.97-6.65-25.9-5.81ZM740.98,2003.08l-8.57-49.49-4.86-.42,2.89,22.08-29.75,4.8-3.88-21.1-4.63,1.08,7.55,49.78,5.8-1.52-3.89-20.55,30.68-4.76,2.93,20.1h5.75ZM610.45,1958.93l-4.86.43c-2.31,16.16-4.71,32.94-5.58,49.37l4.12,1.08,6.32-50.88ZM669,1975.25c-.47-20.38-39.3-19.23-36.39,2.31,2.15,15.91,33.65,10.29,32.59,21.15-.74,7.66-17.01,8.34-22.81,5.53-4.76-2.31-4.06-7.87-10.83-5.96,1.02,19.9,38.05,18.72,39.31.36,1.2-17.41-23.91-13.3-30.73-19.98-10.63-10.41,22.21-16.73,23.22-3.56l5.63.15Z"/>
  <path class="cls-1" d="M497.95,1111.72c136.89-8.84,111.55,188.84,77.43,269.39-21.83,51.54-52.73,80.9-85.85,123.39-23.22,29.79-35.64,67.91,14.97,75.21,83.02,11.98,150.38-85.94,228.62-103.25,86.54-19.14,212.08,16.28,185.55,127.96-8.49,35.76-26.91,54.81-63.44,62.29-74.42,15.25-85.34-60.45-144.45-64.86-51.19-3.81-113.09,30.6-159.88,49.44-46.16,18.59-104.47,40.59-147.79,3.88-72.85-61.72-7.11-203.29.96-282.2,8.55-83.53-36.05-252.86,93.88-261.25Z"/>
  <path class="cls-1" d="M498.91,535.85c129.58-7.33,111.8,172.56,83,252.88-21.73,60.63-54.46,91.44-92.38,139.89-23.36,29.86-35.59,67.71,14.97,75.2,72.53,10.74,133.38-62.69,191.34-90.61,92.83-44.71,262.15-5.98,219.86,125.8-10.34,32.21-32.89,47.91-66.05,52.97-75.3,11.49-79.58-75.35-164.7-64.88-76.56,9.42-184.03,92.96-256.42,67.08-111.17-39.74-32.61-217.46-24.46-297.09,8.57-83.75-36.19-253.84,94.84-261.25Z"/>
  <path class="cls-1" d="M717.73,531.03c36.17-4.08,75.78,14.44,87.09,50.59,16.42,52.49-14.74,167.03,16.3,203.5,17.77,20.88,27.79-21.08,29.27-33.13,7.81-63.38-33.75-161.42,25.47-209.68,15.38-12.54,33.06-14.1,50.71-4.68,44.99,24-7.21,79.37-9.93,112.65-6.11,74.79,36.17,164.13-44.25,213.94-106.24,65.8-209.5-46.53-226.16-147.05-9.24-55.72-3.35-177.68,71.49-186.13Z"/>
  <path class="cls-1" d="M717.73,1106.9c36.57-4.13,76.22,14.63,87.29,51.35,15.75,52.27-14.62,166.65,16.1,202.74,17.69,20.79,27.78-21.02,29.27-33.13,7.69-62.38-33.33-162.06,24.95-209.24,15.88-12.86,33.68-15.07,51.86-4.8,43.84,24.76-7.82,78.8-10.56,112.33-6.08,74.4,36.07,164.53-44.25,213.94-106.35,65.42-209.47-46.36-226.16-147.05-9.24-55.72-3.4-177.68,71.49-186.13Z"/>
  <path class="cls-1" d="M844.64,1908.07l6.61,52.14-6.58,3.1-24.94-26.01-3.39-1.4c-1.7,1.03-.88,1.49-.85,2.65.38,11.76,4.46,25.09,5.23,37.04l-6.82,3.05-36.44-37.46c1.43-1.54,3.62-3.01,5.7-1.95l29.79,28.34c1.36-5.87-6.16-39.69-4.65-42.08.16-.25,4.59-2.33,5.59-1.64l29.78,28.36-4.63-42.07,5.59-2.07Z"/>
  <path class="cls-1" d="M286.98,475.09l-.91-3.4-27.61-27.77,1.79-4.19,42.08,4.65-28.36-29.78,1.51-5.73,37.5,35.97c1.75,1.85-1.31,7.12-3.35,7.17-11.26-.86-24.93-5.21-35.9-5.49-1.11-.03-2.76-.14-3.06,1.24-.42,1.93,24.48,24.67,27.4,28.33l-3.1,6.6-51.19-8.09,1.91-3.83,41.27,4.34Z"/>
  <path class="cls-1" d="M949.27,1823.61l12.33,30.47c.73,1.66-2.92,5.43-4.14,5.61-4.19.62-23.77-6.07-30.19-6.91-1.37-.18-2.31-1.28-1.99,1.04l29.31,25.45-3.05,3.77-38.7-32.09c2.33-1.6,3.38-5.96,6.21-6.24,6.47-.64,23.28,6.35,30.94,6.54l2.17-1.28-12.13-30.7,5.89-7.18,37.47,31.63c1.31,1.19-1.63,4.02-2.42,4.38-2.16.97-30.26-26.04-31.69-24.5Z"/>
  <path class="cls-1" d="M1015.03,401.86c0,14.6-11.84,26.44-26.44,26.44s-26.44-11.84-26.44-26.44,11.84-26.44,26.44-26.44,26.44,11.84,26.44,26.44ZM981.64,382.22c-3.59.74-9.28,6.01-10.79,9.37-7.19,16.05,9.64,35.81,26.39,29.27,20.71-8.09,9.49-43.78-15.61-38.64Z"/>
  <path class="cls-1" d="M918.95,1902.35c0,14.61-11.84,26.45-26.45,26.45s-26.45-11.84-26.45-26.45,11.84-26.45,26.45-26.45,26.45,11.84,26.45,26.45ZM912.37,1902.37c0-10.94-8.87-19.81-19.81-19.81s-19.81,8.87-19.81,19.81,8.87,19.81,19.81,19.81,19.81-8.87,19.81-19.81Z"/>
  <path class="cls-1" d="M1011.64,496.21c-8.61-6.05,4.17-16.26,6.31-23,1.42-4.48-2.78-10.46-4.98-14.37-4.34-1.34-18.69,12.24-17.51,1l44.52-20.18c1.25.09,10.09,20.2,10.74,22.75,4.65,18.48-15.72,27.78-28.97,15.55l-10.11,18.24ZM1034.43,448.36c-1.83.28-14.19,5.97-14.01,7.84.09.92,6.24,14.63,7.12,15.98,6.23,9.53,17.87,6.18,16.8-5.24-.15-1.63-6.32-16.56-7.25-17.75s-1.36-1.02-2.65-.82Z"/>
  <path class="cls-1" d="M625.8,249.55h-5.76s-.96-49.91-.96-49.91c10.35.32,23.71-3.94,32.96,2.08,8.02,5.22,8.76,18.15,2.11,24.83l-7.23,5.23,12.48,16.32c-1.49.9-5.35.84-6.72,0-2.77-1.69-10.58-15.76-13.12-16.64-3.76-1.29-9.81.68-13.76.8v17.28ZM624.84,224.59c8.63-.56,30.66,2.49,27.81-11.98-.36-1.83-4.85-6.26-6.22-6.26h-21.6v18.24Z"/>
  <path class="cls-1" d="M714.11,236.12l9.59,19.18c-2.14-.06-4.49.61-6.25-.94-2.34-2.07-7.98-17.41-10.08-18.71l-13.89-2.43-2.86,17.34-5.28-.08,6.79-49.78c.99-.83,22.93,2.54,25.63,3.45,16.63,5.6,13.69,29.86-3.65,31.97ZM693.95,226.51c7.52-.56,15.7,3.4,23.06,1.47,8.23-2.16,7.83-13.06-.03-16.34-1.77-.74-18.6-3.56-19.56-3.29-2.21.63-2.64,15.16-3.48,18.16Z"/>
  <path class="cls-1" d="M333.06,353.21c-.36,1.6.51,1.94,1.45,2.86,7.92,7.69,16.31,15.13,24.52,22.53,2.18,1.63-.25,5.6-2.32,5.24l-36.07-34.12,5.23-5.15,47.5,5.76-27.81-27.34,4.16-3.29,36.11,34-5.37,5.05-47.4-5.53Z"/>
  <path class="cls-1" d="M352.17,1843.65l-5.68,2.57-15.91-20.68-10.82,8.28,16.95,23.86-5.97,4.24-20.72-28.17,39.82-30.21,20.49,27.42-5.16,5.06-16.77-22.54c-2.62-1.68-10,6.09-12.47,7.72,2.11,2.79,17.27,20.95,16.22,22.45Z"/>
  <path class="cls-1" d="M1049.09,1712.28l-2.57,6.78-45.42,14.34c-.39,2.45.22,1.49,1.35,2,4.55,2.05,33.04,10.05,34.08,11.51l-.89,5.68-47.98-16.33,2.54-6.79,46.41-14.32c-1.85-2.32-6.4-3.45-9.36-4.55-8.89-3.31-18.12-5.87-27.09-8.93l.94-5.71,47.99,16.33Z"/>
  <path class="cls-1" d="M870.55,296.57l.96,21.12c-.61.71-5.24-2.47-5.6-3.51-1.28-3.7.1-18.61-1.6-21.43-.29-.48-8.35-5.54-9.39-5.98-5.94-2.49-7.81,10.06-12.19,13.25l-3.93-2.13,25.64-42.66c1.61-.26,20.3,11.17,22.37,13.09,12.74,11.84.7,32.54-16.26,28.25ZM864.81,263.94l-8.63,14.88c7.07,3.74,18.69,15.41,26.83,9.57,3.79-2.72,3.72-8.4,1.43-11.94-1.35-2.08-18.66-13.26-19.63-12.51Z"/>
  <path class="cls-1" d="M832.16,245.71c-4.62-.62-26.08-12.06-28.66-10.44l-4.92,12.34,24.96,9.62c.42.47-1.27,7.18-3.3,6.72l-23.98-9.53-5.28,13.26,26.78,10.69-2.02,6.55c-2.5,1.55-28.3-11.95-33.47-12.36l19.21-47.02,31.68,12.97c2.18,1.93-1.51,4.48-.98,7.19Z"/>
  <path class="cls-1" d="M405.88,274.64l2.59,5.62-22.55,17.89,8.07,10.73,22.55-16.14c.13,2.74,4.22,3.98,2.46,6.73s-20.5,13.52-20.5,15.82l7.52,11.04,23.7-17.16c4.71.86,6.4,3.92,2.65,7.54-2.18,2.11-23.38,18.27-24.93,18.3-2.49.04-26.76-35.08-30.13-39.73l25.84-20.27,2.73-.36Z"/>
  <path class="cls-1" d="M525.02,250.51c1.94,27.3-34.92,40.57-49.35,16.23-16.86-28.43,23.21-55.05,43.57-30.15-5.39,5.77-7.95-.82-13.37-1.97-10.27-2.19-23.67,2.78-26.99,13.43-6.99,22.47,22.01,31.97,35.43,16.23,4.35-5.1,3.32-13.95,10.7-13.77Z"/>
  <path class="cls-1" d="M378.19,1891.75l4.63,3.44c-5.9,9.51,15.86,27.11,21.33,18.22,4.41-7.17-10.48-17.84-12.11-25.44-5.2-24.17,27.72-20.97,32.51-1.8.77,3.08,1.47,13.53-3.5,12.19-3.83-1.04-1.55-4.98-1.97-7.58-1.64-10.38-21.42-19.97-21.6-9.11-.16,9.71,24.21,24.16,9.98,36.98s-40.47-10.87-29.27-26.88Z"/>
  <path class="cls-1" d="M669,1975.25l-5.63-.15c-1.01-13.17-33.85-6.85-23.22,3.56,6.82,6.69,31.93,2.57,30.73,19.98-1.26,18.36-38.29,19.54-39.31-.36,6.77-1.91,6.07,3.65,10.83,5.96,5.8,2.81,22.07,2.13,22.81-5.53,1.05-10.86-30.45-5.24-32.59-21.15-2.91-21.54,35.92-22.7,36.39-2.31Z"/>
  <path class="cls-1" d="M597.01,252.42c-9.35,4.34-7.9-10.27-15.56-9.41-7.37.82-16.13,4.42-23.82,5.07l-2.98,12.86-6.59,1.08,10.78-53.52,7.99-1.83,30.17,45.75ZM579.73,236.1c-4.16-4.14-9.22-15.88-12.98-19.16-1.2-1.04-1.69-1.22-3.32-.99l-4.81,23.99,21.11-3.84Z"/>
  <path class="cls-1" d="M1024.13,1778.5l-2.56,4.83-13.86-.4-12.2,23.08c2.09,6.39,11.24,9.01,4.14,15.65-3.78-6.05-33.07-38.87-33.05-42.69.01-2.06,2.55-4.79,2.96-7.04l54.56,6.57ZM1000.14,1781.38c-6.98-.52-14.88-2.5-21.74-2.84-1.59-.08-2.25.06-3.22,1.41l14.88,19.64,10.08-18.21Z"/>
  <polygon class="cls-1" points="740.98 2003.08 735.23 2003.07 732.31 1982.97 701.62 1987.74 705.52 2008.29 699.71 2009.81 692.17 1960.03 696.8 1958.95 700.68 1980.06 730.43 1975.25 727.55 1953.17 732.41 1953.59 740.98 2003.08"/>
  <path class="cls-1" d="M318.61,1746.85l.98,3.38c.11.87-.33,1.32-.91,1.87-2.24,2.12-16.72,7.4-17.3,8.17l13.45,27.82,18.87-9.46,3.09,4.2-44.54,23.38c-1.22-.93-2.88-3.23-1.96-4.68,1.96-3.12,14.29-6.5,16.88-9.13,1.08-1.1.91-1.03.56-2.41-1.74-6.83-10.61-17.16-13.04-24.53-2.04-1.32-15.04,7.72-18.79,8.24-2.11.29-2.15-2.67-2.26-4.17l44.98-22.68Z"/>
  <path class="cls-1" d="M950.9,320.67c1.33-.35,1.76.15,2.73.8,2.17,1.46,19.12,18.43,20.65,20.66,1.9,2.77-3.09,6.75-4.85,5.85-3.46-1.78-17.06-19.15-19.55-18.7l-9.18,9.88c.39,2.22,14.4,12.9,15.8,15.99,1.42,3.12-2.02,4.52-3.87,6.68l-18.1-17.19-14.53,14.3-2.94-2.86v-1.9s33.84-33.5,33.84-33.5Z"/>
  <path class="cls-1" d="M439.58,1954.14l-4.74-1.96.15-2.15,20.97-34.79c.03-4.86-20.65-7.33-10.6-15.41l1.26-.28,33.16,20.49c-3.82,12.24-11.76-2.24-19.08-1.97l-21.12,36.07Z"/>
  <path class="cls-1" d="M499.82,1929.42c3.05,3.78,2.86,23.6,7.44,28.53,1.46,0,19.08-14.59,22.61-15.83,1.86-.65,4.89.99,6.66,1.92l-30.18,22.61-6.88,16.35-5.16-1.05,6.4-16.9-6.41-37.3c.72-1.21,5.3,1.4,5.52,1.67Z"/>
  <path class="cls-1" d="M298.41,1691.24c.54,4.98,12.65,35.33,11.21,37.38-.72,1.02-5.15,2.33-6.35,1.49l-5.37-15.03-41.61,12.55-.85-4.24,41.15-14.01-5.62-15.85,7.44-2.28Z"/>
  <path class="cls-1" d="M549.97,1992.52l25.9,5.81-.97,6.65-31.62-6.74,10.73-47.27c1.42-3.09,6.22-1.97,5.37,1.44l-9.41,40.11Z"/>
  <path class="cls-1" d="M762.11,213.07l5.54,2.36-13.15,47.15c-2.09,1.03-4.71.64-4.91-1.99l12.52-47.51Z"/>
  <path class="cls-1" d="M610.45,1958.93l-6.32,50.88-4.12-1.08c.87-16.43,3.26-33.21,5.58-49.37l4.86-.43Z"/>
  <rect class="cls-1" x="314.48" y="369.27" width="5.92" height="51.26" transform="translate(-188.65 419.09) rotate(-53.94)"/>
  <path d="M981.64,382.22c25.1-5.14,36.31,30.55,15.61,38.64-16.75,6.55-33.58-13.22-26.39-29.27,1.51-3.36,7.19-8.64,10.79-9.37Z"/>
  <circle cx="892.57" cy="1902.37" r="19.81"/>
  <path d="M1034.43,448.36c1.29-.2,1.77-.31,2.65.82s7.09,16.12,7.25,17.75c1.07,11.42-10.57,14.77-16.8,5.24-.88-1.35-7.03-15.05-7.12-15.98-.18-1.87,12.18-7.55,14.01-7.84Z"/>
  <path d="M624.84,224.59v-18.24h21.6c1.37,0,5.86,4.44,6.22,6.26,2.85,14.46-19.18,11.42-27.81,11.98Z"/>
  <path d="M693.95,226.51c.84-3,1.27-17.54,3.48-18.16.95-.27,17.78,2.55,19.56,3.29,7.85,3.28,8.26,14.17.03,16.34-7.36,1.94-15.54-2.03-23.06-1.47Z"/>
  <path d="M864.81,263.94c.97-.74,18.28,10.43,19.63,12.51,2.3,3.54,2.36,9.22-1.43,11.94-8.14,5.84-19.76-5.82-26.83-9.57l8.63-14.88Z"/>
  <path d="M579.73,236.1l-21.11,3.84,4.81-23.99c1.63-.23,2.13-.06,3.32.99,3.76,3.28,8.82,15.02,12.98,19.16Z"/>
  <path d="M1000.14,1781.38l-10.08,18.21-14.88-19.64c.97-1.35,1.62-1.48,3.22-1.41,6.86.33,14.76,2.32,21.74,2.84Z"/>
</svg>